<svg width="160" height="32" viewBox="0 0 160 32" fill="none" xmlns="http://www.w3.org/2000/svg">
<path d="M4.89258 23.6641H7.74414V17.3457C7.74414 16.1738 8.47656 15.3535 9.56055 15.3535C10.6152 15.3535 11.25 16.0176 11.25 17.1406V23.6641H13.9941V17.3066C13.9941 16.1445 14.707 15.3535 15.791 15.3535C16.8945 15.3535 17.5 16.0176 17.5 17.2285V23.6641H20.3516V16.5156C20.3516 14.4062 18.9746 13 16.9238 13C15.3906 13 14.1406 13.8301 13.6719 15.1484H13.6133C13.2617 13.7812 12.207 13 10.6934 13C9.26758 13 8.14453 13.8301 7.70508 15.0898H7.64648V13.1953H4.89258V23.6641Z" fill="#FFCD06"/>
<path d="M23.4473 27.541C26.1133 27.541 27.4316 26.5742 28.3203 23.8887L31.9238 13.1953H28.916L26.6992 21.3789H26.6406L24.4141 13.1953H21.2891L24.9316 23.6641C24.9414 23.7129 24.834 24.123 24.834 24.1719C24.6387 25.002 24.1211 25.334 23.0859 25.334C22.9785 25.334 22.4609 25.3242 22.3633 25.3047V27.5117C22.4609 27.5312 23.3398 27.541 23.4473 27.541Z" fill="#FFCD06"/>
<path d="M50.9219 23.3359V9.24414H47.5039L43.5 19.3613H43.4219L39.418 9.24414H36V23.3359H38.627V13.8242H38.7051L42.5332 23.3359H44.3887L48.2168 13.8242H48.2949V23.3359H50.9219Z" fill="#3A3A3A"/>
<path d="M56.2148 9.24414H53.2656V18.3555C53.2656 21.4609 55.5605 23.5703 59.1738 23.5703C62.7773 23.5703 65.0723 21.4609 65.0723 18.3555V9.24414H62.123V18.0625C62.123 19.8691 61.0586 21.0508 59.1738 21.0508C57.2793 21.0508 56.2148 19.8691 56.2148 18.0625V9.24414Z" fill="#3A3A3A"/>
<path d="M66.8887 19.3125C66.9766 21.9688 69.2129 23.5703 72.5723 23.5703C76.0977 23.5703 78.2559 21.832 78.2559 19.0781C78.2559 16.9395 76.957 15.7383 73.9785 15.1426L72.4844 14.8398C70.8242 14.5078 70.1406 13.9707 70.1406 13.1016C70.1406 12.0664 71.1172 11.3828 72.5723 11.3828C74.0566 11.3828 75.1016 12.1055 75.1992 13.3066H77.9824C77.9336 10.7188 75.8633 9 72.5723 9C69.4375 9 67.1914 10.709 67.1914 13.2871C67.1914 15.3867 68.5684 16.7344 71.3809 17.291L72.8652 17.584C74.6328 17.9453 75.2969 18.4727 75.2969 19.4004C75.2969 20.4355 74.2227 21.1973 72.6504 21.1973C71.0488 21.1973 69.8574 20.4941 69.6719 19.3125H66.8887Z" fill="#3A3A3A"/>
<path d="M83.0117 23.3359V9.24414H80.0625V23.3359H83.0117Z" fill="#3A3A3A"/>
<path d="M91.5859 23.5703C95.043 23.5703 97.4551 21.5879 97.7871 18.4434H94.916C94.6035 20.1133 93.3438 21.1387 91.5957 21.1387C89.3398 21.1387 87.9238 19.2832 87.9238 16.2754C87.9238 13.3066 89.3594 11.4414 91.5859 11.4414C93.3047 11.4414 94.6328 12.5742 94.9062 14.3027H97.7773C97.5527 11.1484 94.9746 9 91.5859 9C87.5039 9 84.916 11.7441 84.916 16.2852C84.916 20.8359 87.4844 23.5703 91.5859 23.5703Z" fill="#3A3A3A"/>
</svg>
